<svg xmlns="http://www.w3.org/2000/svg" width="978" height="241" fill="none" viewBox="0 0 978 241">
  <g opacity=".8">
    <path fill="#000" fill-rule="evenodd" d="M423.792 196.844c-11.784 4.267-18.342 16.745-14.639 27.847 3.704 11.104 16.28 16.654 28.063 12.388 11.786-4.267 18.345-16.744 14.639-27.848-3.704-11.103-16.279-16.653-28.063-12.387ZM39.209 84.021c3.077 0 4.615 1.54 4.615 4.617v144.656c0 3.077-1.538 4.615-4.615 4.615H8.752c-3.077 0-4.615-1.538-4.615-4.615V88.638c0-3.078 1.538-4.616 4.615-4.617h30.457Zm125.215-1.23c33.534 0 45.225 22.775 45.225 54.168v96.335c0 3.077-1.54 4.615-4.615 4.615h-30.458c-3.077 0-4.615-1.538-4.615-4.615V132.342c0-10.464-7.691-14.157-16.613-14.157h-3.692c-13.229 0-22.766 5.54-26.15 11.08v104.029c0 3.077-1.538 4.615-4.615 4.615H88.434c-3.077 0-4.615-1.538-4.615-4.615V88.638c0-3.078 1.538-4.616 4.615-4.617h30.457c3.077 0 4.615 1.54 4.615 4.617v13.542c4.615-7.694 16.305-19.39 39.072-19.39h1.846Zm117.215-60.325c3.077 0 4.615 1.54 4.615 4.617V133.88l43.685-46.166c1.847-2.155 4.616-3.693 7.078-3.694h31.687c4 0 7.691 4.617 2.153 10.465l-45.84 49.244 53.531 85.869c1.847 3.386 1.538 8.31-3.691 8.31h-28.92c-3.998 0-7.691-1.229-10.151-5.54l-37.534-62.17-11.998 12.003v51.092c0 3.077-1.538 4.615-4.615 4.615h-30.458c-3.076 0-4.614-1.538-4.614-4.615V27.083c0-3.078 1.538-4.617 4.614-4.617h30.458ZM18.011 29.78C6.463 33.272-.487 44.929 2.501 55.795c2.99 10.865 14.792 16.85 26.34 13.357 11.55-3.493 18.5-15.15 15.51-26.016-2.988-10.865-14.79-16.85-26.34-13.357Z" clip-rule="evenodd"/>
    <path stroke="#fff" stroke-opacity=".8" d="m17.707 28.773.304 1.006-.304-1.006Zm0 0C5.677 32.412-1.668 44.596 1.49 56.073c3.163 11.503 15.61 17.73 27.656 14.086 12.03-3.64 19.375-15.824 16.218-27.3-3.163-11.503-15.611-17.729-27.657-14.085ZM39.21 82.97H8.752c-1.7 0-3.168.426-4.204 1.462-1.036 1.036-1.461 2.504-1.461 4.205v144.656c0 1.7.425 3.169 1.461 4.205s2.504 1.461 4.204 1.461h30.457c1.7 0 3.169-.425 4.204-1.461 1.036-1.036 1.462-2.505 1.462-4.205V88.638c0-1.7-.426-3.17-1.462-4.206-1.035-1.035-2.503-1.461-4.203-1.461Zm340.262 146.126-.015-.028-.015-.025-53.107-85.187 45.286-48.648.004-.004c2.931-3.097 3.641-6.129 2.712-8.524-.905-2.34-3.256-3.71-5.632-3.71h-31.687c-2.843 0-5.872 1.734-7.857 4.04l-41.855 44.232V27.083c0-1.701-.427-3.17-1.463-4.206-1.035-1.036-2.504-1.462-4.203-1.462h-30.458c-1.7 0-3.168.426-4.204 1.462-1.036 1.036-1.46 2.505-1.46 4.206v206.211c0 1.7.424 3.169 1.46 4.205s2.504 1.461 4.204 1.461h30.458c1.699 0 3.168-.425 4.203-1.461 1.036-1.036 1.463-2.505 1.463-4.205v-50.657l10.741-10.746 36.828 60.999.006.013c1.326 2.318 3.015 3.852 4.944 4.796 1.918.939 4.012 1.261 6.113 1.261h28.92c1.473 0 2.696-.347 3.645-1.011.954-.668 1.551-1.599 1.859-2.621.605-1.999.124-4.369-.89-6.231Zm43.964-33.241c-12.259 4.438-19.183 17.464-15.277 29.17 3.913 11.729 17.145 17.486 29.418 13.043 12.256-4.439 19.182-17.465 15.277-29.17-3.914-11.729-17.147-17.486-29.418-13.043ZM210.7 136.959c0-15.797-2.937-29.603-10.244-39.482-7.351-9.937-19.002-15.737-36.032-15.737h-1.846c-20.509 0-32.273 9.338-38.022 17.005V88.638c0-1.7-.426-3.17-1.461-4.206-1.036-1.035-2.504-1.461-4.204-1.461H88.434c-1.7 0-3.169.426-4.204 1.462-1.036 1.036-1.462 2.504-1.462 4.205v144.656c0 1.7.426 3.169 1.462 4.205 1.035 1.036 2.503 1.461 4.204 1.461h30.457c1.7 0 3.168-.425 4.204-1.461 1.035-1.036 1.461-2.505 1.461-4.205V129.567c3.272-5.057 12.315-10.331 25.1-10.331h3.692c4.341 0 8.242.902 11.031 2.951 2.736 2.009 4.532 5.215 4.532 10.155v100.952c0 1.7.426 3.169 1.461 4.205 1.036 1.036 2.504 1.461 4.204 1.461h30.458c1.699 0 3.168-.425 4.203-1.461 1.036-1.036 1.463-2.505 1.463-4.205v-96.335Z"/>
  </g>
  <g opacity=".8">
    <path fill="#000" fill-rule="evenodd" d="m420.032 161.015-6.704-.049c-3.076 0-4.614-1.539-4.614-4.617V27.083c0-3.078 1.538-4.617 4.614-4.617h31.38c3.078 0 4.616 1.54 4.616 4.617l-.019 4.362c-11.935 2.908-21.227 15.074-21.971 30.244-.597 12.184 4.473 23.22 12.485 29.466-5.968 4.063-10.357 10.925-11.456 19.143-1.197 8.948 1.78 17.425 7.305 23.03-5.576 2.448-10.653 7.452-13.544 14.05-2.042 4.665-2.681 9.416-2.092 13.637Z" clip-rule="evenodd"/>
    <path stroke="#fff" stroke-opacity=".8" d="m420.025 162.066 1.214.009-.165-1.205c-.561-4.014.042-8.57 2.012-13.07 2.79-6.372 7.685-11.174 13.004-13.51l1.397-.613-1.071-1.087c-5.288-5.366-8.168-13.515-7.013-22.152l-1.04-.14 1.04.14c1.061-7.932 5.292-14.524 11.009-18.414l1.191-.812-1.137-.886c-7.718-6.015-12.666-16.71-12.082-28.586.725-14.804 9.778-26.498 21.169-29.274l.798-.195.004-.822.019-4.362v-.004c0-1.701-.427-3.17-1.462-4.206-1.036-1.036-2.502-1.462-4.204-1.462h-31.38c-1.7 0-3.168.426-4.204 1.462-1.036 1.036-1.46 2.505-1.46 4.206v129.266c0 1.701.424 3.17 1.46 4.205 1.036 1.036 2.502 1.462 4.202 1.463h.002l6.697.049Z"/>
  </g>
  <g opacity=".8">
    <path fill="#000" fill-rule="evenodd" d="M429.716 150.56c-2.287 5.223-.537 10.738 3.906 12.309 4.441 1.57 9.905-1.396 12.193-6.62 2.288-5.224.538-10.739-3.905-12.309-4.442-1.57-9.906 1.396-12.194 6.62Zm8.286-38.243c-1.527 8.087 2.735 15.68 9.513 16.944 6.777 1.264 13.521-4.275 15.048-12.362 1.527-8.087-2.735-15.679-9.515-16.943-6.777-1.264-13.519 4.275-15.046 12.361Zm-1.704-47.663c-.542 11.066 6.563 20.583 15.857 21.24 9.295.658 17.282-7.792 17.824-18.857.542-11.066-6.563-20.583-15.857-21.24-9.294-.658-17.282 7.792-17.824 18.857Z" clip-rule="evenodd"/>
    <path stroke="#fff" stroke-opacity=".8" d="m446.777 156.671-.962-.422.962.422Zm0 0c2.446-5.583.689-11.882-4.517-13.722-5.113-1.807-11.069 1.623-13.506 7.189-2.445 5.582-.689 11.881 4.517 13.721 5.113 1.807 11.069-1.622 13.506-7.188Zm6.465-57.748c-7.511-1.401-14.673 4.721-16.274 13.199-1.6 8.479 2.841 16.77 10.353 18.172 7.511 1.401 14.673-4.722 16.274-13.2 1.6-8.479-2.841-16.77-10.353-18.171Zm-17.992-34.32c-.563 11.464 6.811 21.63 16.832 22.34 10.05.71 18.384-8.384 18.945-19.855.563-11.465-6.811-21.631-16.832-22.34-10.05-.71-18.384 8.384-18.945 19.855Z"/>
  </g>
  <path fill="#2B2B2B" d="M641.668 187.305c0 8.522-2.148 16.614-6.445 24.277-4.297 7.591-10.993 13.75-20.088 18.477-9.024 4.726-20.697 7.089-35.02 7.089-7.161 0-13.463-.322-18.906-.966-5.371-.645-10.384-1.683-15.039-3.116-4.655-1.504-9.489-3.437-14.502-5.8v-37.813c8.522 4.297 17.116 7.591 25.781 9.883 8.666 2.22 16.507 3.33 23.526 3.33 4.225 0 7.662-.501 10.312-1.504 2.721-1.002 4.727-2.363 6.016-4.082 1.289-1.79 1.933-3.831 1.933-6.123 0-2.721-.966-5.013-2.9-6.875-1.862-1.934-4.87-3.939-9.024-6.016-4.153-2.076-9.632-4.655-16.435-7.734-5.801-2.721-11.065-5.514-15.791-8.379-4.655-2.864-8.665-6.123-12.031-9.775-3.295-3.724-5.837-8.057-7.627-12.998-1.791-4.942-2.686-10.778-2.686-17.51 0-10.098 2.471-18.548 7.412-25.352 5.013-6.875 11.96-12.03 20.84-15.468 8.952-3.438 19.264-5.157 30.938-5.157 10.241 0 19.443 1.146 27.607 3.438 8.236 2.291 15.612 4.906 22.129 7.842l-12.998 32.763c-6.732-3.079-13.356-5.514-19.873-7.304-6.517-1.862-12.568-2.793-18.154-2.793-3.653 0-6.661.465-9.024 1.396-2.292.86-4.01 2.041-5.156 3.545-1.074 1.504-1.611 3.223-1.611 5.156 0 2.435.931 4.619 2.793 6.553 1.933 1.934 5.12 4.046 9.56 6.338 4.512 2.22 10.635 5.12 18.369 8.701 7.663 3.438 14.18 7.162 19.551 11.172 5.371 3.939 9.453 8.701 12.246 14.287 2.865 5.514 4.297 12.354 4.297 20.518Zm157.588-34.16c0 18.261-3.402 33.444-10.205 45.546-6.804 12.103-16.4 21.198-28.789 27.286-12.318 6.015-26.82 9.023-43.506 9.023h-50.811V77.95h54.356c16.901 0 31.224 2.9 42.969 8.7 11.744 5.801 20.66 14.288 26.748 25.459 6.158 11.172 9.238 24.851 9.238 41.036Zm-44.043 1.503c0-9.524-1.289-17.402-3.867-23.632-2.507-6.302-6.302-10.993-11.387-14.073-5.085-3.151-11.494-4.726-19.229-4.726h-12.353v87.978h9.453c12.891 0 22.344-3.724 28.359-11.172 6.016-7.519 9.024-18.977 9.024-34.375ZM961.678 235h-47.91l-31.045-60.049-12.569 7.52V235h-42.646V77.95h42.646v68.212a111.567 111.567 0 0 1 6.123-10.312 539.845 539.845 0 0 1 6.875-9.776l32.979-48.125h46.406l-49.521 70.362L961.678 235Z"/>
  <path fill="#fff" d="m635.223 211.582.87.493.002-.004-.872-.489Zm-20.088 18.477-.461-.888-.003.002.464.886Zm-53.926 6.123-.119.993h.001l.118-.993Zm-15.039-3.116-.308.952.014.004.294-.956Zm-14.502-5.8h-1v.634l.574.27.426-.904Zm0-37.813.45-.893-1.45-.731v1.624h1Zm25.781 9.883-.255.967.007.002.248-.969Zm33.838 1.826-.346-.938-.008.003.354.935Zm6.016-4.082.8.6.006-.008.005-.008-.811-.584Zm-.967-12.998-.72.694.013.013.013.013.694-.72Zm-9.024-6.016-.447.895.447-.895Zm-16.435-7.734-.425.905.013.006.412-.911Zm-15.791-8.379-.524.852.006.003.518-.855Zm-12.031-9.775-.749.662.006.008.007.007.736-.677Zm-2.901-55.86-.808-.589-.001.002.809.587Zm20.84-15.468-.358-.934-.003.001.361.933Zm58.545-1.72-.27.964h.002l.268-.963Zm22.129 7.843.929.368.353-.888-.871-.392-.411.912Zm-12.998 32.763-.416.91.957.438.388-.979-.929-.369Zm-19.873-7.304-.275.961.01.003.265-.964Zm-27.178-1.397.351.936.008-.002.008-.003-.367-.931Zm-5.156 3.545-.796-.606-.009.012-.009.013.814.581Zm1.182 11.709-.721.694.007.006.006.007.708-.707Zm9.56 6.338-.459.889.009.004.009.004.441-.897Zm18.369 8.701-.42.908.011.005.409-.913Zm19.551 11.172-.598.801.007.005.591-.806Zm12.246 14.287-.894.447.003.007.004.007.887-.461Zm3.297 20.518c0 8.345-2.102 16.27-6.318 23.788l1.745.978c4.378-7.807 6.573-16.067 6.573-24.766h-2Zm-6.316 23.784c-4.185 7.395-10.724 13.429-19.678 18.082l.922 1.775c9.236-4.8 16.089-11.084 20.497-18.871l-1.741-.986Zm-19.681 18.084c-8.834 4.627-20.333 6.975-34.556 6.975v2c14.423 0 26.271-2.378 35.484-7.204l-.928-1.771Zm-34.556 6.975c-7.133 0-13.394-.321-18.788-.959l-.236 1.986c5.492.65 11.835.973 19.024.973v-2Zm-18.787-.959c-5.318-.638-10.272-1.665-14.864-3.078l-.588 1.911c4.718 1.452 9.79 2.502 15.214 3.153l.238-1.986Zm-14.851-3.074c-4.609-1.489-9.403-3.406-14.383-5.754l-.852 1.809c5.046 2.379 9.92 4.329 14.62 5.848l.615-1.903Zm-13.809-4.849v-37.813h-2v37.813h2Zm-1.45-36.92c8.58 4.326 17.239 7.646 25.976 9.957l.511-1.934c-8.594-2.273-17.123-5.541-25.587-9.809l-.9 1.786Zm25.983 9.959c8.725 2.235 16.652 3.361 23.774 3.361v-2c-6.916 0-14.672-1.094-23.278-3.299l-.496 1.938Zm23.774 3.361c4.292 0 7.862-.508 10.666-1.569l-.708-1.87c-2.495.944-5.8 1.439-9.958 1.439v2Zm10.658-1.566c2.84-1.046 5.031-2.502 6.47-4.42l-1.6-1.2c-1.14 1.519-2.96 2.785-5.562 3.744l.692 1.876Zm6.481-4.436c1.417-1.967 2.122-4.214 2.122-6.707h-2c0 2.091-.583 3.926-1.745 5.539l1.623 1.168Zm2.122-6.707c0-2.989-1.074-5.542-3.206-7.595l-1.388 1.44c1.735 1.671 2.594 3.701 2.594 6.155h2Zm-3.18-7.569c-1.978-2.054-5.104-4.12-9.296-6.216l-.895 1.789c4.115 2.057 7.005 4.002 8.751 5.815l1.44-1.388Zm-9.296-6.216c-4.17-2.085-9.662-4.669-16.471-7.751l-.824 1.822c6.797 3.077 12.263 5.649 16.4 7.718l.895-1.789Zm-16.458-7.745c-5.774-2.709-11.006-5.485-15.698-8.329l-1.036 1.71c4.761 2.886 10.056 5.695 15.884 8.429l.85-1.81Zm-15.692-8.326c-4.585-2.821-8.522-6.022-11.82-9.601l-1.471 1.355c3.434 3.727 7.518 7.042 12.243 9.95l1.048-1.704Zm-11.806-9.586c-3.206-3.624-5.686-7.846-7.436-12.676l-1.88.681c1.83 5.053 4.435 9.497 7.818 13.32l1.498-1.325Zm-7.436-12.676c-1.742-4.806-2.626-10.522-2.626-17.169h-2c0 6.817.906 12.774 2.746 17.85l1.88-.681Zm-2.626-17.169c0-9.93 2.427-18.163 7.221-24.764l-1.618-1.175c-5.089 7.006-7.603 15.674-7.603 25.939h2Zm7.22-24.763c4.887-6.701 11.67-11.748 20.393-15.125l-.722-1.865c-9.037 3.498-16.148 8.764-21.287 15.812l1.616 1.178Zm20.391-15.124c8.815-3.385 19.002-5.09 30.579-5.09v-2c-11.77 0-22.208 1.733-31.296 5.223l.717 1.867Zm30.579-5.09c10.167 0 19.277 1.138 27.337 3.4l.54-1.925c-8.268-2.32-17.563-3.475-27.877-3.475v2Zm27.339 3.401c8.196 2.28 15.523 4.879 21.986 7.79l.822-1.823c-6.571-2.96-13.997-5.59-22.272-7.894l-.536 1.927Zm21.467 6.51-12.998 32.764 1.859.737 12.998-32.764-1.859-.737Zm-11.652 32.223c-6.776-3.1-13.451-5.554-20.024-7.36l-.53 1.929c6.461 1.775 13.034 4.191 19.722 7.25l.832-1.819Zm-20.014-7.357c-6.588-1.882-12.733-2.831-18.429-2.831v2c5.475 0 11.433.912 17.879 2.754l.55-1.923Zm-18.429-2.831c-3.728 0-6.871.473-9.39 1.466l.733 1.861c2.207-.87 5.079-1.327 8.657-1.327v-2Zm-9.375 1.46c-2.417.906-4.312 2.183-5.601 3.875l1.591 1.212c1.003-1.316 2.546-2.402 4.712-3.215l-.702-1.872Zm-5.619 3.9c-1.201 1.682-1.797 3.606-1.797 5.737h2c0-1.735.477-3.249 1.425-4.575l-1.628-1.162Zm-1.797 5.737c0 2.721 1.051 5.148 3.072 7.247l1.441-1.388c-1.703-1.768-2.513-3.71-2.513-5.859h-2Zm3.085 7.26c2.044 2.044 5.34 4.213 9.809 6.52l.918-1.778c-4.411-2.276-7.489-4.332-9.312-6.156l-1.415 1.414Zm9.827 6.528c4.522 2.225 10.653 5.129 18.39 8.712l.84-1.815c-7.731-3.58-13.846-6.476-18.347-8.691l-.883 1.794Zm18.401 8.717c7.612 3.414 14.062 7.103 19.362 11.06l1.196-1.602c-5.442-4.064-12.026-7.823-19.739-11.283l-.819 1.825Zm19.369 11.065c5.251 3.852 9.225 8.494 11.943 13.928l1.789-.894c-2.869-5.738-7.059-10.62-12.55-14.646l-1.182 1.612Zm11.95 13.942c2.771 5.334 4.184 12.005 4.184 20.057h2c0-8.276-1.451-15.285-4.41-20.979l-1.774.922Zm123.778 58.729.439.898.002-.001-.441-.897ZM665.945 235h-1v1h1v-1Zm0-157.05v-1h-1v1h1Zm124.073 34.159-.879.479.003.004.876-.483Zm-38.672 18.907-.93.369.006.013.924-.382Zm-11.387-14.073-.527.85.009.006.518-.856Zm-31.582-4.726v-1h-1v1h1Zm0 87.978h-1v1h1v-1Zm37.812-11.172.778.629.003-.004-.781-.625Zm52.067-35.878c0 18.142-3.38 33.143-10.077 45.056l1.743.98c6.91-12.292 10.334-27.656 10.334-46.036h-2Zm-10.077 45.056c-6.705 11.928-16.152 20.881-28.358 26.878l.882 1.795c12.572-6.177 22.318-15.415 29.219-27.693l-1.743-.98Zm-28.356 26.877c-12.155 5.936-26.501 8.922-43.067 8.922v2c16.806 0 31.464-3.03 43.945-9.125l-.878-1.797ZM716.756 234h-50.811v2h50.811v-2Zm-49.811 1V77.95h-2V235h2Zm-1-156.05h54.356v-2h-54.356v2Zm54.356 0c16.79 0 30.953 2.881 42.526 8.597l.885-1.793c-11.916-5.886-26.4-8.805-43.411-8.805v2Zm42.526 8.597c11.566 5.712 20.327 14.055 26.312 25.041l1.757-.957c-6.189-11.358-15.26-19.988-27.184-25.877l-.885 1.793Zm26.315 25.045c6.058 10.99 9.114 24.492 9.114 40.553h2c0-16.31-3.103-30.164-9.363-41.518l-1.751.965Zm-32.929 42.056c0-9.605-1.299-17.624-3.943-24.015l-1.848.765c2.512 6.07 3.791 13.807 3.791 23.25h2Zm-3.938-24.002c-2.575-6.475-6.501-11.35-11.798-14.558l-1.036 1.711c4.873 2.951 8.538 7.457 10.976 13.586l1.858-.739Zm-11.789-14.553c-5.283-3.274-11.889-4.876-19.756-4.876v2c7.602 0 13.816 1.548 18.702 4.576l1.054-1.7Zm-19.756-4.876h-12.353v2h12.353v-2Zm-13.353 1v87.978h2v-87.978h-2Zm1 88.978h9.453v-2h-9.453v2Zm9.453 0c13.081 0 22.871-3.785 29.137-11.543l-1.555-1.257c-5.766 7.138-14.882 10.8-27.582 10.8v2Zm29.14-11.547c6.221-7.775 9.243-19.502 9.243-35h-2c0 15.297-2.994 26.487-8.804 33.751l1.561 1.249ZM961.678 235v1h1.708l-.836-1.489-.872.489Zm-47.91 0-.889.459.28.541h.609v-1Zm-31.045-60.049.888-.459-.489-.945-.913.546.514.858Zm-12.569 7.52-.513-.858-.487.291v.567h1Zm0 52.529v1h1v-1h-1Zm-42.646 0h-1v1h1v-1Zm0-157.05v-1h-1v1h1Zm42.646 0h1v-1h-1v1Zm0 68.212h-1l1.887.462-.887-.462Zm6.123-10.312-.824-.567-.004.006-.004.006.832.555Zm6.875-9.776.812.585.006-.01.007-.01-.825-.565Zm32.979-48.125v-1h-.527l-.298.435.825.565Zm46.406 0 .818.576 1.109-1.576h-1.927v1Zm-49.521 70.362-.818-.576-.363.515.309.55.872-.489ZM961.678 234h-47.91v2h47.91v-2Zm-47.022.541-31.045-60.049-1.777.918 31.045 60.049 1.777-.918Zm-32.447-60.448-12.568 7.52 1.027 1.716 12.568-7.52-1.027-1.716Zm-13.055 8.378V235h2v-52.529h-2Zm1 51.529h-42.646v2h42.646v-2Zm-41.646 1V77.95h-2V235h2Zm-1-156.05h42.646v-2h-42.646v2Zm41.646-1v68.212h2V77.949h-2Zm1.887 68.674a110.365 110.365 0 0 1 6.068-10.22l-1.664-1.109a112.337 112.337 0 0 0-6.178 10.405l1.774.924Zm6.06-10.208a534.119 534.119 0 0 1 6.863-9.757l-1.623-1.17a535.362 535.362 0 0 0-6.888 9.794l1.648 1.133Zm6.876-9.777 32.979-48.124-1.65-1.131-32.979 48.125 1.65 1.13Zm32.154-47.69h46.406v-2h-46.406v2Zm45.588-1.575-49.521 70.361 1.635 1.151 49.522-70.361-1.636-1.151ZM912.144 148.8l48.662 86.689 1.744-.978-48.662-86.69-1.744.979Z"/>
</svg>
